<svg xmlns="http://www.w3.org/2000/svg" viewBox="0 0 1200 720" fill="none">
  <defs>
    <linearGradient id="foodie-bg" x1="0" y1="0" x2="1200" y2="720" gradientUnits="userSpaceOnUse">
      <stop stop-color="#1E293B" />
      <stop offset="1" stop-color="#EA580C" />
    </linearGradient>
  </defs>
  <rect width="1200" height="720" fill="url(#foodie-bg)" />
  <rect x="120" y="88" width="960" height="544" rx="34" fill="#0F172A" fill-opacity="0.72" />
  <rect x="156" y="132" width="262" height="34" rx="10" fill="#E2E8F0" fill-opacity="0.2" />
  <rect x="182" y="198" width="260" height="380" rx="40" fill="#F8FAFC" fill-opacity="0.96" />
  <rect x="476" y="198" width="552" height="170" rx="20" fill="#FB923C" fill-opacity="0.22" />
  <rect x="476" y="388" width="552" height="190" rx="20" fill="#E2E8F0" fill-opacity="0.12" />
  <circle cx="312" cy="292" r="56" fill="#F97316" fill-opacity="0.3" />
  <circle cx="312" cy="448" r="88" fill="#0F172A" fill-opacity="0.09" />
  <path
    d="M534 466C574 430 610 510 650 480C690 450 728 510 768 468C808 426 846 494 886 452C926 410 968 456 1008 428"
    stroke="#FDBA74"
    stroke-linecap="round"
    stroke-width="12"
  />
  <text
    x="160"
    y="602"
    fill="#E2E8F0"
    font-family="Arial, sans-serif"
    font-size="38"
    font-weight="700"
  >
    Foodie Finder App
  </text>
</svg>
