<svg xmlns="http://www.w3.org/2000/svg" viewBox="0 0 1200 720" fill="none">
  <defs>
    <linearGradient id="book-bg" x1="40" y1="20" x2="1160" y2="700" gradientUnits="userSpaceOnUse">
      <stop stop-color="#0F172A" />
      <stop offset="1" stop-color="#0F766E" />
    </linearGradient>
  </defs>
  <rect width="1200" height="720" fill="url(#book-bg)" />
  <rect x="92" y="84" width="1016" height="552" rx="32" fill="#F8FAFC" fill-opacity="0.96" />
  <rect x="136" y="130" width="360" height="36" rx="10" fill="#0F172A" fill-opacity="0.1" />
  <rect x="136" y="198" width="640" height="362" rx="20" fill="#0F172A" fill-opacity="0.07" />
  <rect x="800" y="198" width="264" height="362" rx="20" fill="#14B8A6" fill-opacity="0.18" />
  <rect x="180" y="242" width="64" height="240" rx="10" fill="#0EA5E9" fill-opacity="0.56" />
  <rect x="254" y="242" width="64" height="240" rx="10" fill="#22D3EE" fill-opacity="0.5" />
  <rect x="328" y="242" width="64" height="240" rx="10" fill="#38BDF8" fill-opacity="0.45" />
  <rect x="402" y="242" width="64" height="240" rx="10" fill="#2DD4BF" fill-opacity="0.52" />
  <rect x="476" y="242" width="64" height="240" rx="10" fill="#34D399" fill-opacity="0.48" />
  <rect x="550" y="242" width="64" height="240" rx="10" fill="#0F766E" fill-opacity="0.4" />
  <circle cx="932" cy="300" r="62" fill="#0F172A" fill-opacity="0.14" />
  <circle cx="932" cy="470" r="50" fill="#0F172A" fill-opacity="0.12" />
  <text
    x="140"
    y="604"
    fill="#0F172A"
    font-family="Arial, sans-serif"
    font-size="38"
    font-weight="700"
  >
    Book Library Store
  </text>
</svg>
