<svg xmlns="http://www.w3.org/2000/svg" viewBox="0 0 1200 720" fill="none">
  <defs>
    <linearGradient id="pulse-bg" x1="0" y1="0" x2="1200" y2="720" gradientUnits="userSpaceOnUse">
      <stop stop-color="#1E293B" />
      <stop offset="1" stop-color="#0369A1" />
    </linearGradient>
  </defs>
  <rect width="1200" height="720" fill="url(#pulse-bg)" />
  <rect x="90" y="90" width="1020" height="540" rx="30" fill="#020617" fill-opacity="0.72" />
  <rect x="136" y="136" width="260" height="28" rx="8" fill="#E2E8F0" fill-opacity="0.2" />
  <path
    d="M160 470C208 420 250 510 298 460C346 410 396 520 444 446C492 372 540 478 588 432C636 386 684 432 732 404C780 376 828 458 876 394C924 330 976 380 1030 330"
    stroke="#2DD4BF"
    stroke-linecap="round"
    stroke-width="12"
  />
  <rect x="160" y="206" width="250" height="162" rx="16" fill="#0EA5E9" fill-opacity="0.15" />
  <rect x="442" y="206" width="250" height="162" rx="16" fill="#22D3EE" fill-opacity="0.12" />
  <rect x="724" y="206" width="250" height="162" rx="16" fill="#38BDF8" fill-opacity="0.16" />
  <text
    x="140"
    y="592"
    fill="#E2E8F0"
    font-family="Arial, sans-serif"
    font-size="38"
    font-weight="700"
  >
    Pulse Observability Dashboard
  </text>
</svg>
