<svg xmlns="http://www.w3.org/2000/svg" viewBox="0 0 64 64" fill="none">
  <rect width="64" height="64" rx="14" fill="#00ADD8" />
  <path d="M11 29h18" stroke="#fff" stroke-width="4.5" stroke-linecap="round"/>
  <path d="M8 35h21" stroke="#fff" stroke-width="4.5" stroke-linecap="round"/>
  <path d="M11 41h12" stroke="#fff" stroke-width="4.5" stroke-linecap="round"/>
  <path d="M39.5 23.5c5.25 0 9.5 4.25 9.5 9.5s-4.25 9.5-9.5 9.5S30 38.25 30 33s4.25-9.5 9.5-9.5z" fill="#fff"/>
  <circle cx="39.5" cy="33" r="3.2" fill="#00ADD8"/>
  <circle cx="39.5" cy="33" r="1.4" fill="#fff"/>
  <path d="M47.5 30.5c0-3 2.5-5.5 5.5-5.5S58.5 27.5 58.5 30.5v4.5c0 4.15-3.35 7.5-7.5 7.5S43.5 39.15 43.5 35v-4.5z" fill="#fff"/>
  <circle cx="52.9" cy="31.6" r="1.2" fill="#00ADD8"/>
  <path d="M32 45.5c2.2 2.1 4.95 3.2 7.9 3.2 3 0 5.8-1.15 8-3.3" stroke="#fff" stroke-width="2.8" stroke-linecap="round"/>
</svg>